# Blender v2.77 (sub 0) OBJ File: 'DWAC-2016_scene setup.blend'
# www.blender.org
o cube
v -4.700000 -0.400000 -0.700000
v -5.700000 -0.400000 -0.700000
v -5.700000 0.600000 -0.700000
v -4.700000 0.600000 -0.700000
v -4.700000 -0.400000 0.300000
v -4.700000 0.600000 0.300000
v -5.700000 -0.400000 0.300000
v -5.700000 0.600000 0.300000
vt 0.1539 0.8624
vt 0.0032 0.8639
vt 0.0032 0.7007
vt 0.1539 0.6992
vt 0.3300 0.7320
vt 0.4786 0.7332
vt 0.4786 0.8964
vt 0.3300 0.8952
vt 0.3104 0.9198
vt 0.1629 0.9178
vt 0.1629 0.7546
vt 0.3104 0.7566
vt 0.6543 0.7913
vt 0.7936 0.7960
vt 0.7936 0.9590
vt 0.6543 0.9543
vt 0.6543 0.6215
vt 0.8165 0.6215
vt 0.8165 0.7847
vt 0.6543 0.7847
vt 0.6798 0.6033
vt 0.6798 0.4400
vt 0.8419 0.4401
vt 0.8419 0.6034
vn 0.0000 0.0000 -1.0000
vn 1.0000 0.0000 0.0000
vn 0.0000 -0.0000 1.0000
vn -1.0000 0.0000 0.0000
vn 0.0000 -1.0000 -0.0000
vn 0.0000 1.0000 0.0000
s off
f 1/1/1 2/2/1 3/3/1 4/4/1
f 5/5/2 1/6/2 4/7/2 6/8/2
f 7/9/3 5/10/3 6/11/3 8/12/3
f 2/13/4 7/14/4 8/15/4 3/16/4
f 5/17/5 7/18/5 2/19/5 1/20/5
f 4/21/6 3/22/6 8/23/6 6/24/6
