# Blender v2.77 (sub 0) OBJ File: 'DWAC-2016_scene setup.blend'
# www.blender.org
o slab
v -0.238943 1.311818 -0.250000
v -1.004987 0.669031 -0.250000
v -1.021057 0.688182 -0.250000
v -0.255013 1.330969 -0.250000
v -0.238943 1.311818 0.250000
v -0.238943 1.311818 -0.250000
v -0.255013 1.330969 -0.250000
v -0.255013 1.330969 0.250000
v -1.004987 0.669031 0.250000
v -0.238943 1.311818 0.250000
v -0.255013 1.330969 0.250000
v -1.021057 0.688182 0.250000
v -1.004987 0.669031 -0.250000
v -1.004987 0.669031 0.250000
v -1.021057 0.688182 0.250000
v -1.021057 0.688182 -0.250000
v -0.238943 1.311818 0.250000
v -1.004987 0.669031 0.250000
v -1.004987 0.669031 -0.250000
v -0.238943 1.311818 -0.250000
v -0.255013 1.330969 -0.250000
v -1.021057 0.688182 -0.250000
v -1.021057 0.688182 0.250000
v -0.255013 1.330969 0.250000
vt 0.3169 0.6952
vt 0.3169 0.5379
vt 0.3208 0.5382
vt 0.3208 0.6955
vt 0.9540 0.4411
vt 0.9540 0.5158
vt 0.9509 0.5148
vt 0.9509 0.4400
vt 0.3208 0.7020
vt 0.3208 0.8577
vt 0.3169 0.8581
vt 0.3169 0.7024
vt 0.3194 0.8647
vt 0.3194 0.9463
vt 0.3169 0.9462
vt 0.3169 0.8646
vt 0.5044 0.9462
vt 0.5044 0.8194
vt 0.5855 0.8205
vt 0.5855 0.9473
vt 0.0842 0.8733
vt 0.0842 0.9967
vt 0.0032 0.9938
vt 0.0032 0.8704
vn -0.0000 0.0000 -1.0000
vn 0.7660 0.6428 0.0000
vn 0.0000 -0.0000 1.0000
vn -0.7660 -0.6428 -0.0000
vn 0.6428 -0.7660 -0.0000
vn -0.6428 0.7660 0.0000
s off
f 1/1/1 2/2/1 3/3/1 4/4/1
f 5/5/2 6/6/2 7/7/2 8/8/2
f 9/9/3 10/10/3 11/11/3 12/12/3
f 13/13/4 14/14/4 15/15/4 16/16/4
f 17/17/5 18/18/5 19/19/5 20/20/5
f 21/21/6 22/22/6 23/23/6 24/24/6
