# Blender v2.77 (sub 0) OBJ File: 'DWAC-2016_scene setup.blend'
# www.blender.org
o Cube
v -1.000000 -0.200000 0.200000
v -1.000000 0.200000 0.200000
v -1.000000 -0.200000 -0.200000
v -1.000000 0.200000 -0.200000
v 1.000000 -0.200000 0.200000
v 1.000000 0.200000 0.200000
v 1.000000 -0.200000 -0.200000
v 1.000000 0.200000 -0.200000
v -1.120000 0.000000 0.000000
v 1.120000 0.000000 0.000000
vn -0.8575 -0.5145 0.0000
vn 0.0000 0.0000 -1.0000
vn 0.8575 0.0000 -0.5145
vn 0.0000 0.0000 1.0000
vn 0.0000 -1.0000 0.0000
vn 0.0000 1.0000 0.0000
vn -0.8575 0.5145 0.0000
vn 0.8575 0.0000 0.5145
vn -0.8575 0.0000 -0.5145
vn -0.8575 0.0000 0.5145
vn 0.8575 -0.5145 0.0000
vn 0.8575 0.5145 0.0000
s off
f 3//1 1//1 9//1
f 4//2 8//2 7//2 3//2
f 7//3 8//3 10//3
f 6//4 2//4 1//4 5//4
f 1//5 3//5 7//5 5//5
f 6//6 8//6 4//6 2//6
f 2//7 4//7 9//7
f 6//8 5//8 10//8
f 4//9 3//9 9//9
f 1//10 2//10 9//10
f 5//11 7//11 10//11
f 8//12 6//12 10//12
